<svg width="200" height="200" viewBox="0 0 200 200" xmlns="http://www.w3.org/2000/svg">
    <!-- Gradient for the Sun -->
    <defs>
        <radialGradient id="sunGradient" cx="50%" cy="50%" r="50%" fx="50%" fy="50%">
            <stop offset="0%" style="stop-color:#FFD700; stop-opacity:1" />
            <stop offset="100%" style="stop-color:#FFA500; stop-opacity:1" />
        </radialGradient>
    </defs>

    <!-- Sun -->
    <circle cx="100" cy="100" r="35" fill="url(#sunGradient)" />

    <!-- Sun Rays -->
    <polygon points="100,15 95,45 105,45" fill="#FFD700" opacity="0.8" />
    <polygon points="15,100 45,95 45,105" fill="#FFD700" opacity="0.8" />
    <polygon points="185,100 155,95 155,105" fill="#FFD700" opacity="0.8" />
    <polygon points="30,30 50,45 45,50" fill="#FFD700" opacity="0.6" />
    <polygon points="170,30 150,45 155,50" fill="#FFD700" opacity="0.6" />
    <polygon points="30,170 50,155 45,150" fill="#FFD700" opacity="0.6" />
    <polygon points="170,170 150,155 155,150" fill="#FFD700" opacity="0.6" />

    <!-- Cloud -->
    <ellipse cx="130" cy="155" rx="60" ry="35" fill="#B0C4DE" opacity="0.9" />
    <ellipse cx="80" cy="155" rx="70" ry="45" fill="#B0C4DE" opacity="0.9" />
    <ellipse cx="105" cy="145" rx="60" ry="35" fill="#B0C4DE" />
</svg>